<svg width="65" height="81" viewBox="0 0 65 81" fill="none" xmlns="http://www.w3.org/2000/svg">
<path d="M25.5322 2H1.53223V23H25.5322V2Z" fill="white" stroke="#4B5661" stroke-width="3"/>
<path d="M25.5322 30H1.53223V51H25.5322V30Z" fill="white" stroke="#4B5661" stroke-width="3"/>
<path d="M25.5322 58H1.53223V79H25.5322V58Z" fill="#92D3B8" fill-opacity="0.5" stroke="#4B5661" stroke-width="3"/>
<path d="M18.4967 64.3158L11.5475 70.327L8.66229 67.5441C8.35726 67.2524 7.90525 67.1314 7.47606 67.2266C7.04714 67.3219 6.70629 67.619 6.58212 68.0058C6.45794 68.3929 6.56934 68.8109 6.87409 69.1026L10.6127 72.6647C10.8352 72.878 11.1436 72.9988 11.4661 72.9988C11.7836 73.013 12.0931 72.9052 12.3195 72.7017L20.163 65.9114C20.3916 65.7082 20.5241 65.4312 20.5319 65.1397C20.5394 64.8483 20.4216 64.5657 20.2035 64.3529C19.9866 64.1347 19.6813 64.0072 19.3587 64.0003C19.0362 63.9932 18.7245 64.1074 18.4967 64.3159L18.4967 64.3158Z" fill="#0A7B4C"/>
<path d="M32.6327 7.53333H63.4661C64.1469 7.53333 64.6994 6.96587 64.6994 6.26667C64.6994 5.56747 64.1469 5 63.4661 5H32.6327C31.9519 5 31.3994 5.56747 31.3994 6.26667C31.3994 6.96587 31.9519 7.53333 32.6327 7.53333Z" fill="#4B5661"/>
<path d="M32.6327 13.8668H58.5327C59.2135 13.8668 59.7661 13.2994 59.7661 12.6002C59.7661 11.901 59.2135 11.3335 58.5327 11.3335H32.6327C31.9519 11.3335 31.3994 11.901 31.3994 12.6002C31.3994 13.2994 31.9519 13.8668 32.6327 13.8668Z" fill="#4B5661"/>
<path d="M32.6327 20.1998H49.8994C50.5802 20.1998 51.1327 19.6324 51.1327 18.9332C51.1327 18.234 50.5802 17.6665 49.8994 17.6665H32.6327C31.9519 17.6665 31.3994 18.234 31.3994 18.9332C31.3994 19.6324 31.9519 20.1998 32.6327 20.1998Z" fill="#4B5661"/>
<path d="M31.6327 35.5333H62.4661C63.1469 35.5333 63.6994 34.9659 63.6994 34.2667C63.6994 33.5675 63.1469 33 62.4661 33H31.6327C30.9519 33 30.3994 33.5675 30.3994 34.2667C30.3994 34.9659 30.9519 35.5333 31.6327 35.5333Z" fill="#4B5661"/>
<path d="M31.6327 41.8668H57.5327C58.2135 41.8668 58.7661 41.2994 58.7661 40.6002C58.7661 39.901 58.2135 39.3335 57.5327 39.3335H31.6327C30.9519 39.3335 30.3994 39.901 30.3994 40.6002C30.3994 41.2994 30.9519 41.8668 31.6327 41.8668Z" fill="#4B5661"/>
<path d="M31.6327 48.1998H48.8994C49.5802 48.1998 50.1327 47.6324 50.1327 46.9332C50.1327 46.234 49.5802 45.6665 48.8994 45.6665H31.6327C30.9519 45.6665 30.3994 46.234 30.3994 46.9332C30.3994 47.6324 30.9519 48.1998 31.6327 48.1998Z" fill="#4B5661"/>
<path d="M31.6327 63.5333H62.4661C63.1469 63.5333 63.6994 62.9659 63.6994 62.2667C63.6994 61.5675 63.1469 61 62.4661 61H31.6327C30.9519 61 30.3994 61.5675 30.3994 62.2667C30.3994 62.9659 30.9519 63.5333 31.6327 63.5333Z" fill="#4B5661"/>
<path d="M31.6327 69.8668H57.5327C58.2135 69.8668 58.7661 69.2994 58.7661 68.6002C58.7661 67.901 58.2135 67.3335 57.5327 67.3335H31.6327C30.9519 67.3335 30.3994 67.901 30.3994 68.6002C30.3994 69.2994 30.9519 69.8668 31.6327 69.8668Z" fill="#4B5661"/>
<path d="M31.6327 76.1998H48.8994C49.5802 76.1998 50.1327 75.6324 50.1327 74.9332C50.1327 74.234 49.5802 73.6665 48.8994 73.6665H31.6327C30.9519 73.6665 30.3994 74.234 30.3994 74.9332C30.3994 75.6324 30.9519 76.1998 31.6327 76.1998Z" fill="#4B5661"/>
</svg>
