<svg width="94" height="68" viewBox="0 0 94 68" fill="none" xmlns="http://www.w3.org/2000/svg">
<path d="M68.5068 28.0332H84.0068L92.0068 40.5332L68.0068 40.0332L68.5068 28.0332Z" fill="#92D3B8" stroke="black"/>
<path d="M93.1908 37.2734L79.0467 17.3293C78.7237 16.8733 78.1992 16.6026 77.641 16.6026H60.4486V5.94902C60.4471 4.38027 59.8226 2.87699 58.713 1.76728C57.6041 0.658396 56.1 0.0347386 54.5312 0.0332031H6.38277C4.81941 0.0401242 3.32294 0.66763 2.2217 1.77651C1.11972 2.8854 0.502995 4.38651 0.506854 5.949V54.0581C0.503009 55.6215 1.11974 57.1225 2.22093 58.2322C3.3229 59.3411 4.81931 59.9686 6.38279 59.9755H16.1597C16.4881 62.1725 17.6078 64.1726 19.308 65.6014C21.0074 67.0302 23.1714 67.7884 25.3914 67.7338C27.6114 67.7892 29.7755 67.031 31.4748 65.6022C33.175 64.1734 34.2947 62.1725 34.623 59.9755H69.1506C69.6613 62.8954 71.5222 65.4014 74.1698 66.7342C76.8174 68.066 79.9389 68.0676 82.588 66.7372C85.2364 65.4076 87.1005 62.903 87.6133 59.9839C87.731 59.9808 87.8517 59.977 87.9624 59.9754C89.4328 59.9739 90.8431 59.3887 91.882 58.349C92.9216 57.3086 93.5061 55.8983 93.5068 54.4279V38.2691C93.5068 37.9123 93.3961 37.5647 93.1908 37.2733L93.1908 37.2734ZM89.2551 37.6802H70.1987V28.4785H82.7286L89.2551 37.6802ZM3.95093 43.5276H9.18077V47.191H3.95093V43.5276ZM25.3912 64.2886C23.2503 64.2655 21.2817 63.1098 20.2182 61.2518C19.1547 59.3932 19.1547 57.1108 20.2182 55.2529C21.2817 53.3949 23.2503 52.2391 25.3912 52.2153C27.532 52.2391 29.4999 53.3949 30.5641 55.2529C31.6276 57.1107 31.6276 59.3931 30.5641 61.251C29.5006 63.1097 27.532 64.2654 25.3912 64.2886ZM57.0032 56.5303H34.622C34.2944 54.3341 33.1748 52.3332 31.4746 50.9044C29.7751 49.4748 27.6112 48.7166 25.3912 48.7704C23.1712 48.7166 21.007 49.4748 19.3069 50.9036C17.6067 52.3331 16.4879 54.3341 16.1595 56.5303H6.38257C5.02915 56.518 3.94188 55.4114 3.95172 54.0579V50.6366L10.9041 50.6359C11.3609 50.6366 11.7992 50.4552 12.1222 50.1322C12.4451 49.8092 12.6266 49.3709 12.6266 48.9133V41.8048C12.6266 41.3481 12.4452 40.9097 12.1222 40.5868C11.7992 40.2638 11.3609 40.0823 10.9041 40.0823H3.95172V5.94841C3.94172 4.59575 5.02986 3.49 6.38257 3.4776H54.5311C55.8952 3.47913 57.0011 4.58418 57.0034 5.94841L57.0032 56.5303ZM78.3805 64.2886C76.2404 64.264 74.2734 63.1082 73.2105 61.251C72.147 59.3932 72.147 57.1116 73.2105 55.2536C74.2732 53.3958 76.2404 52.2399 78.3805 52.2153C80.5206 52.2399 82.4876 53.3957 83.5513 55.2536C84.614 57.1115 84.614 59.3931 83.5513 61.2503C82.4885 63.1081 80.5206 64.264 78.3805 64.2886ZM87.9621 56.5303C87.8514 56.5288 87.7307 56.5249 87.613 56.5218C87.1001 53.6028 85.2369 51.0973 82.5877 49.7671C79.9393 48.4375 76.8173 48.4391 74.1695 49.7717C71.5219 51.1036 69.6602 53.6105 69.1503 56.5304H60.4484V20.0479H76.7488L80.2854 25.034H68.4761C68.0193 25.0333 67.581 25.2148 67.258 25.5377C66.935 25.8607 66.7535 26.299 66.7535 26.7566V39.4026C66.7535 39.8594 66.935 40.2977 67.258 40.6207C67.581 40.9437 68.0193 41.1251 68.4761 41.1251H90.062V54.4279C90.0612 55.5875 89.1223 56.528 87.9627 56.5304L87.9621 56.5303Z" fill="#4B5661"/>
<path d="M22.082 58.2531C22.099 59.4243 22.7334 60.4985 23.7508 61.079C24.7674 61.6596 26.0155 61.6596 27.0321 61.079C28.0494 60.4985 28.6839 59.4242 28.7008 58.2531C28.6839 57.0827 28.0494 56.0077 27.0328 55.4271C26.0154 54.8466 24.7673 54.8466 23.7507 55.4271C22.7334 56.0077 22.099 57.082 22.082 58.2531H22.082Z" fill="#92D3B8"/>
<path d="M75.0723 58.2531C75.0892 59.4243 75.7236 60.4985 76.7402 61.079C77.7576 61.6596 79.0057 61.6596 80.0223 61.079C81.0397 60.4985 81.6741 59.4242 81.691 58.2531C81.6741 57.0827 81.0397 56.0077 80.0223 55.4271C79.0057 54.8466 77.7576 54.8466 76.741 55.4271C75.7236 56.0077 75.0892 57.082 75.0723 58.2531H75.0723Z" fill="#92D3B8"/>
<path d="M31.0635 18.4521V22.3011H37.9433V25.7653H31.0635V33.0332H26.5068V15.0332H39.5068V18.4521H31.0635Z" fill="#4B5661"/>
</svg>
