<svg width="99" height="80" viewBox="0 0 99 80" fill="none" xmlns="http://www.w3.org/2000/svg">
<rect x="17.5312" y="51" width="79" height="6" fill="#C9E9DC"/>
<rect x="17.5312" y="21" width="79" height="6" fill="#C9E9DC"/>
<path fill-rule="evenodd" clip-rule="evenodd" d="M19.8315 20C16.9255 20 14.5313 22.3903 14.5313 25.2916C14.5313 28.1928 16.9261 30.5847 19.8315 30.5847H21.7803L23.3753 44.8963C23.5086 46.0925 23.8485 47.236 24.3991 48.2474H19.8315C16.9255 48.2474 14.5312 50.6393 14.5312 53.5406C14.5312 56.4418 16.926 58.8321 19.8315 58.8321H21.7803L23.3753 73.1437C23.5716 74.9076 24.2156 76.5578 25.3255 77.8379C26.4355 79.1181 28.0909 80 29.9505 80H83.112C84.9715 80 86.6256 79.1181 87.7355 77.8379C88.8455 76.5578 89.4884 74.9081 89.6853 73.1437L91.2802 58.8321H93.231C96.137 58.8321 98.5312 56.4418 98.5312 53.5406C98.5312 50.6393 96.137 48.2474 93.231 48.2474H88.6619C89.2125 47.236 89.5519 46.0925 89.6852 44.8963L91.2802 30.5847H93.231C96.137 30.5847 98.5312 28.1928 98.5312 25.2916C98.5312 22.3903 96.137 20 93.231 20H19.8315ZM19.8315 23.5288H93.2305C94.24 23.5288 94.9962 24.2837 94.9962 25.2916C94.9962 26.2994 94.24 27.056 93.2305 27.056H19.8315C18.822 27.056 18.0643 26.2994 18.0643 25.2916C18.0643 24.2837 18.822 23.5288 19.8315 23.5288ZM25.3359 30.5847H87.7256L86.1742 44.5072C86.0466 45.6532 85.6164 46.6456 85.0658 47.2809C84.5151 47.9162 83.9225 48.2232 83.1124 48.2232H29.9509C29.1408 48.2232 28.5486 47.9161 27.9975 47.2809C27.4469 46.6457 27.0146 45.6532 26.887 44.5072L25.3359 30.5847ZM33.9666 34.1119C31.6082 34.1119 31.6082 37.6386 33.9666 37.6407H39.2669C41.6253 37.6407 41.6253 34.114 39.2669 34.1119H33.9666ZM19.8323 51.7767H93.2313C94.2408 51.7767 94.997 52.5332 94.997 53.5411C94.997 54.5489 94.2408 55.3039 93.2313 55.3039C66.1662 55.2957 46.9223 55.3039 19.8323 55.3039C18.8228 55.3039 18.0651 54.5489 18.0651 53.5411C18.0651 52.5332 18.8228 51.7767 19.8323 51.7767ZM25.3367 58.8327H87.7264L86.175 72.7551C86.0473 73.9011 85.6172 74.8931 85.0666 75.5283C84.5159 76.1635 83.9233 76.4711 83.1132 76.4711H29.9517C29.1416 76.4711 28.5494 76.1635 27.9983 75.5283C27.4476 74.8931 27.0154 73.9011 26.8878 72.7551L25.3367 58.8327ZM33.9674 62.3357C31.5527 62.2758 31.5527 65.9233 33.9674 65.8629H39.2677C41.6824 65.9228 41.6824 62.2753 39.2677 62.3357H33.9674Z" fill="#4B5661"/>
<circle cx="15.0312" cy="19.5" r="13" fill="#C9E9DC" stroke="#4B5661" stroke-width="3"/>
<path fill-rule="evenodd" clip-rule="evenodd" d="M15.0697 14.2307C15.0697 13.6572 14.6047 13.1922 14.0312 13.1922C13.4578 13.1922 12.9928 13.6572 12.9928 14.2307V21.5C12.9928 22.0735 13.4578 22.5385 14.0312 22.5385H21.3005C21.874 22.5385 22.339 22.0735 22.339 21.5C22.339 20.9265 21.874 20.4615 21.3005 20.4615H15.0698L15.0697 14.2307Z" fill="#4B5661"/>
<path d="M45.5447 16.9998H49.0996H49.0989C49.9906 13.9666 49.4827 10.5931 47.7623 8.12611C46.4562 5.90295 46.4562 4.71869 46.562 4.19081C46.6433 3.82964 46.84 3.52217 47.1092 3.33426L46.5925 1.96769L45.9089 0C44.7981 0.598687 43.9598 1.7505 43.6154 3.15211C43.608 3.21231 43.608 3.27331 43.6154 3.33432C43.2946 5.81611 43.9002 8.34184 45.2708 10.2395C47.7623 14.4491 45.7116 16.6901 45.5447 17L45.5447 16.9998Z" fill="#4B5661"/>
<path d="M56.5241 16.9998H60.0967C60.9929 13.9699 60.4825 10.6001 58.7534 8.13586C57.5015 5.91515 57.5015 4.7322 57.5015 4.20489C57.5839 3.84982 57.7741 3.54511 58.0358 3.34929L57.5015 1.67464L56.9215 0C55.8045 0.598839 54.9627 1.74857 54.6158 3.14864C54.609 3.20958 54.609 3.27052 54.6158 3.33065C54.2935 5.81054 54.9021 8.33266 56.2801 10.2291C58.7534 14.4519 56.7381 16.6903 56.5241 17L56.5241 16.9998Z" fill="#4B5661"/>
<path d="M67.5544 16.9998H71.1001C71.9896 13.9666 71.4823 10.5931 69.767 8.12611C68.4642 5.90295 68.4486 4.71869 68.5697 4.19081C68.6516 3.83534 68.8403 3.5303 69.1 3.33426L68.4791 1.67649L67.8879 0C66.7881 0.606829 65.9594 1.7562 65.6152 3.15211C65.6084 3.21231 65.6084 3.27331 65.6152 3.33432C65.2952 5.81611 65.8993 8.34184 67.267 10.2395C69.767 14.4491 67.8121 16.6901 67.5545 17L67.5544 16.9998Z" fill="#4B5661"/>
</svg>
