<svg width="28" height="42" viewBox="0 0 28 42" fill="none" xmlns="http://www.w3.org/2000/svg">
<g clip-path="url(#clip0_428_602)">
<path d="M14.6857 0.851562C15.4982 1.01095 16.333 1.09653 17.12 1.34042C22.5819 3.0402 25.8934 6.73178 26.8849 12.4205C27.5311 16.1271 26.5427 19.5213 24.5893 22.6684C23.0501 25.1501 21.208 27.4051 19.44 29.7146C19.1285 30.1211 18.815 30.5265 18.4834 30.9555C19.3796 31.1523 20.2334 31.3074 21.0681 31.5299C22.7874 31.9877 24.4516 32.5846 25.815 33.7988C26.5512 34.4545 27.0692 35.2407 27.0523 36.2869C27.0364 37.2657 26.5491 38.0102 25.8637 38.6381C24.6497 39.7506 23.1667 40.3465 21.6243 40.7958C18.3012 41.7628 14.9039 41.9864 11.4664 41.782C9.04484 41.6387 6.66984 41.2557 4.3817 40.4117C3.27153 40.002 2.22068 39.4832 1.32768 38.682C-0.328044 37.1951 -0.324866 35.2664 1.34145 33.7849C2.47598 32.7761 3.83403 32.1878 5.262 31.7749C6.31073 31.4721 7.39018 31.2774 8.45585 31.0335C8.51624 31.0196 8.57344 30.9929 8.67725 30.9576C7.96433 30.0376 7.27365 29.1487 6.58615 28.2576C5.0353 26.2487 3.46539 24.2558 2.18467 22.0512C0.685727 19.4689 -0.0822814 16.693 0.111575 13.6903C0.3531 9.93771 1.86687 6.78099 4.64865 4.27572C6.80013 2.3374 9.32768 1.22275 12.2016 0.922164C12.2906 0.912536 12.3775 0.876166 12.4654 0.851562C13.2059 0.851562 13.9453 0.851562 14.6857 0.851562ZM13.6031 34.7979C13.6571 34.7294 13.7143 34.6599 13.7684 34.5882C15.62 32.1407 17.494 29.7092 19.3171 27.2403C20.7281 25.3288 22.1645 23.4268 23.4294 21.4168C25.1868 18.6217 25.851 15.5505 25.2535 12.2387C24.0734 5.69523 17.5681 1.29763 11.1264 2.71286C5.68679 3.90774 1.81814 8.62731 1.68573 14.2465C1.62641 16.7518 2.30755 19.0592 3.55331 21.2125C4.7906 23.3498 6.32026 25.2742 7.81708 27.2232C9.74187 29.7317 11.6561 32.2487 13.6031 34.7989V34.7979ZM13.5724 40.2534C16.3679 40.2021 19.1169 39.9346 21.7747 39.0457C22.9177 38.6627 24.0353 38.2124 24.9145 37.3363C25.6529 36.6014 25.6741 35.8462 24.8944 35.1648C24.3637 34.7005 23.7503 34.3037 23.119 33.9902C21.3722 33.1238 19.477 32.7665 17.5671 32.5023C17.4347 32.4841 17.2292 32.6178 17.137 32.7408C16.208 33.986 15.2938 35.2429 14.3806 36.4998C13.8425 37.239 13.3118 37.2422 12.7811 36.5094C11.87 35.2504 10.9569 33.9924 10.03 32.7462C9.93785 32.6221 9.73022 32.4851 9.60098 32.5065C8.57556 32.6798 7.54802 32.8531 6.53848 33.0992C5.14971 33.4383 3.80861 33.9218 2.64865 34.8032C1.38064 35.766 1.34674 36.7822 2.65289 37.6786C3.42725 38.2103 4.29907 38.6371 5.18149 38.958C7.89229 39.9453 10.7281 40.201 13.5724 40.2523V40.2534Z" fill="#297254"/>
<path d="M19.1249 14.4754C19.1228 17.584 16.6397 20.0721 13.5433 20.0668C10.4893 20.0625 8.02425 17.5519 8.02637 14.4508C8.02955 11.34 10.5073 8.85617 13.6069 8.85938C16.6598 8.86259 19.127 11.3721 19.1249 14.4743V14.4754ZM13.5613 10.4597C11.394 10.4725 9.60052 12.2953 9.61217 14.4764C9.62277 16.664 11.4321 18.4793 13.5899 18.4665C15.7562 18.4536 17.5529 16.6266 17.5401 14.4486C17.5274 12.2589 15.7202 10.4468 13.5624 10.4597H13.5613Z" fill="#297254"/>
<path d="M23.8818 14.1224C23.8818 14.2562 23.886 14.3888 23.8818 14.5225C23.8648 15.0039 23.5354 15.3419 23.0883 15.3398C22.6434 15.3376 22.3097 14.9996 22.3023 14.5161C22.2822 13.2078 22.0385 11.9488 21.4824 10.7646C20.4697 8.60806 18.8542 7.09762 16.6508 6.22902C16.1445 6.02898 15.9019 5.68988 15.9803 5.28553C16.0852 4.74746 16.5809 4.48645 17.1424 4.69825C19.5936 5.62142 21.439 7.25594 22.6816 9.57508C23.44 10.9903 23.8277 12.5136 23.8828 14.1224H23.8818Z" fill="#297254"/>
<path d="M13.6467 5.6535C13.1922 5.6535 12.8564 5.30691 12.8606 4.84479C12.8649 4.38589 13.2123 4.04679 13.6668 4.05641C14.0947 4.06604 14.438 4.4137 14.4422 4.84479C14.4475 5.29193 14.0916 5.6535 13.6467 5.65243V5.6535Z" fill="#297254"/>
</g>
<defs>
<clipPath id="clip0_428_602">
<rect width="27" height="41" fill="white" transform="translate(0.0820312 0.851562)"/>
</clipPath>
</defs>
</svg>
